{
.appVersion = "3091";
.formatVersion = 3;
DisplayStrings = (
"/ref",
"/_part.a",
"",
"/uniE000",
"/comma_uniE000_period.liga/uniE000_period.liga"
);
customParameters = (
{
name = glyphOrder;
value = (
.notdef,
space
);
}
);
date = "2021-10-22 15:00:47 +0000";
familyName = "VFDigit 8A";
featurePrefixes = (
{
automatic = 1;
code = "languagesystem DFLT dflt;
";
name = Languagesystems;
}
);
features = (
{
automatic = 1;
code = "feature cv01;
";
tag = aalt;
},
{
automatic = 1;
code = "lookupflag IgnoreMarks;
sub comma eight period by comma_eight_period.liga;
sub comma five period by comma_five_period.liga;
sub comma four period by comma_four_period.liga;
sub comma nine period by comma_nine_period.liga;
sub comma one period by comma_one_period.liga;
sub comma seven period by comma_seven_period.liga;
sub comma six period by comma_six_period.liga;
sub comma three period by comma_three_period.liga;
sub comma two period by comma_two_period.liga;
sub comma uniE000 period by comma_uniE000_period.liga;
sub comma zero period by comma_zero_period.liga;
sub comma eight by comma_eight.liga;
sub comma five by comma_five.liga;
sub comma four by comma_four.liga;
sub comma nine by comma_nine.liga;
sub comma one by comma_one.liga;
sub comma seven by comma_seven.liga;
sub comma six by comma_six.liga;
sub comma three by comma_three.liga;
sub comma two by comma_two.liga;
sub comma zero by comma_zero.liga;
sub eight period by eight_period.liga;
sub five period by five_period.liga;
sub four period by four_period.liga;
sub nine period by nine_period.liga;
sub one period by one_period.liga;
sub seven period by seven_period.liga;
sub six period by six_period.liga;
sub three period by three_period.liga;
sub two period by two_period.liga;
sub uniE000 period by uniE000_period.liga;
sub zero period by zero_period.liga;
";
tag = liga;
},
{
automatic = 1;
code = "sub six_period.liga by six_period.liga.cv01;
sub six by six.cv01;
sub comma_six.liga by comma_six.liga.cv01;

glyphs = (
{
glyphname = zero;
lastChange = "2021-10-23 06:31:21 +0000";
layers = (
{
layerId = m01;
shapes = (
{
alignment = -1;
ref = _part.c;
},
{
alignment = -1;
ref = _part.d;
},
{
alignment = -1;
ref = _part.e;
}
);
width = 600;
},
{
associatedMasterId = m01;
background = {
shapes = (
{
closed = 1;
nodes = (
(370,332,ls),
(381,332,o),
(384,339,o),
(384,345,cs),
(384,355,o),
(378,365,o),
(367,365,cs),
(233,365,ls),
(192,365,o),
(184,373,o),
(184,404,cs),
(184,440,o),
(192,511,o),
(203,551,cs),
(204,554,o),
(202,557,o),
(200,559,cs),
(181,578,o),
(181,574,o),
(171,599,cs),
(169,603,o),
(167,604,o),
(165,604,cs),
(156,604,o),
(146,571,o),
(141,539,cs),
(129,466,o),
(124,445,o),
(124,411,cs),
(124,396,o),
(126,383,o),
(130,372,cs),
(143,339,o),
(186,332,o),
(216,332,cs)
);
},
{
closed = 1;
nodes = (
(240,0,ls),
(339,0,o),
(366,3,o),
(409,59,cs),
(419,73,o),
(430,89,o),
(430,98,cs),
(430,102,o),
(427,105,o),
(421,105,cs),
(384,105,ls),
(378,105,o),
(373,102,o),
(370,97,cs),
(359,75,o),
(343,60,o),
(326,53,cs),
(291,38,o),
(254,40,o),
(218,40,cs),
(174,40,o),
(137,40,o),
(122,52,cs),
(118,55,o),
(117,60,o),
(117,66,cs),
(117,75,o),
(120,86,o),
(123,94,cs),
(125,99,o),
(121,105,o),
(115,105,cs),
(80,105,ls),
(75,105,o),
(71,102,o),
(69,97,cs),
(66,85,o),
(64,75,o),
(64,65,cs),
(64,1,o),
(116,0,o),
(198,0,cs)
);
},
{
closed = 1;
nodes = (
(130,127,ls),
(135,127,o),
(140,130,o),
(143,134,cs),
(157,158,o),
(174,179,o),
(186,197,cs),
(221,244,o),
(233,252,o),
(251,277,cs),
(256,284,o),
(250,296,o),
(242,296,cs),
(241,296,ls),
(214,296,o),
(124,199,o),
(88,141,cs),
(85,135,o),
(89,127,o),
(96,127,cs)
);
},
{
closed = 1;
nodes = (
(254,64,ls),
(264,64,o),
(265,65,o),
(268,78,cs),
(277,124,o),
(307,266,o),
(309,280,cs),
(311,294,o),
(291,296,o),
(285,282,cs),
(201,77,ls),
(196,65,o),
(201,64,o),
(220,64,cs)
);
},
{
closed = 1;
nodes = (
(432,127,ls),
(439,127,o),
(444,131,o),
(446,138,cs),
(461,199,o),
(447,275,o),
(404,286,cs),
(398,288,o),
(394,283,o),
(394,279,cs),
(394,277,o),
(406,233,o),
(406,213,cs),
(405,186,o),
(398,158,o),
(389,140,cs),
(386,134,o),
(392,127,o),
(398,127,cs)
);
},
{
closed = 1;
nodes = (
(324,392,o),
(329,394,o),
(332,400,cs),
(341,419,o),
(432,611,o),
(432,628,cs),
(432,636,o),
(423,640,o),
(384,640,cs),
(343,640,o),
(342,645,o),
(335,608,cs),
(333,599,o),
(303,437,o),
(300,417,cs),
(297,400,o),
(308,392,o),
(319,392,cs)
);
},
{
closed = 1;
nodes = (
(212,587,o),
(213,589,o),
(215,591,c),
(252,642,o),
(273,657,o),
(347,657,cs),
(424,657,o),
(440,655,o),
(466,653,cs),
(481,651,o),
(487,673,o),
(480,680,cs),
(472,688,o),
(460,700,o),
(412,700,cs),
(333,700,ls),
(285,700,o),
(221,692,o),
(192,663,cs),
(187,658,o),
(179,643,o),
(179,635,cs),
(180,622,o),
(198,595,o),
(202,591,cs),
(205,588,o),
(207,587,o),
(209,587,cs)
);
},
{
closed = 1;
nodes = (
(412,392,o),
(435,415,o),
(450,434,cs),
(470,459,o),
(536,568,o),
(536,593,cs),
(536,608,o),
(520,643,o),
(510,654,cs),
(501,663,o),
(494,644,o),
(487,622,cs),
(483,609,o),
(467,528,o),
(425,460,cs),
(415,444,o),
(391,405,o),
(391,402,cs),
(391,398,ls),
(391,393,o),
(397,392,o),
(401,392,cs)
);
}
);
};
layerId = "62631D08-285B-4204-A630-561FFA9578A0";
name = "21年10月23日 1:22";
shapes = (
{
closed = 1;
nodes = (
(240,0,ls),
(339,0,o),
(366,3,o),
(409,59,cs),
(419,73,o),
(430,89,o),
(430,98,cs),
(430,102,o),
(427,105,o),
(421,105,cs),
(384,105,ls),
(378,105,o),
(373,102,o),
(370,97,cs),
(359,75,o),
(343,60,o),
(326,53,cs),
(291,38,o),
(254,40,o),
(218,40,cs),
(174,40,o),
(137,40,o),
(122,52,cs),
(118,55,o),
(117,60,o),
(117,66,cs),
(117,75,o),
(120,86,o),
(123,94,cs),
(125,99,o),
(121,105,o),
(115,105,cs),
(80,105,ls),
(75,105,o),
(71,102,o),
(69,97,cs),
(66,85,o),
(64,75,o),
(64,65,cs),
(64,1,o),
(116,0,o),
(198,0,cs)
);
},
{
closed = 1;
nodes = (
(130,127,ls),
(135,127,o),
(140,130,o),
(143,134,cs),
(157,158,o),
(174,179,o),
(186,197,cs),
(221,244,o),
(233,252,o),
(251,277,cs),
(256,284,o),
(250,296,o),
(242,296,cs),
(241,296,ls),
(214,296,o),
(124,199,o),
(88,141,cs),
(85,135,o),
(89,127,o),
(96,127,cs)
);
},
{
closed = 1;
nodes = (
(432,127,ls),
(439,127,o),
(444,131,o),
(446,138,cs),
(461,199,o),
(447,275,o),
(404,286,cs),
(398,288,o),
(394,283,o),
(394,279,cs),
(394,277,o),
(406,233,o),
(406,213,cs),
(405,186,o),
(398,158,o),
(389,140,cs),
(386,134,o),
(392,127,o),
(398,127,cs)
);
}
);
width = 600;
},
{
associatedMasterId = m01;
background = {
shapes = (
{
closed = 1;
nodes = (
(370,332,ls),
(381,332,o),
(384,339,o),
(384,345,cs),
(384,355,o),
(378,365,o),
(367,365,cs),
(233,365,ls),
(192,365,o),
(184,373,o),
(184,404,cs),
(184,440,o),
(192,511,o),
(203,551,cs),
(204,554,o),
(202,557,o),
(200,559,cs),
(181,578,o),
(181,574,o),
(171,599,cs),
(169,603,o),
(167,604,o),
(165,604,cs),
(156,604,o),
(146,571,o),
(141,539,cs),
(129,466,o),
(124,445,o),
(124,411,cs),
(124,396,o),
(126,383,o),
(130,372,cs),
(143,339,o),
(186,332,o),
(216,332,cs)
);
},
{
closed = 1;
nodes = (
(240,0,ls),
(339,0,o),
(366,3,o),
(409,59,cs),
(419,73,o),
(430,89,o),
(430,98,cs),
(430,102,o),
(427,105,o),
(421,105,cs),
(384,105,ls),
(378,105,o),
(373,102,o),
(370,97,cs),
(359,75,o),
(343,60,o),
(326,53,cs),
(291,38,o),
(254,40,o),
(218,40,cs),
(174,40,o),
(137,40,o),
(122,52,cs),
(118,55,o),
(117,60,o),
(117,66,cs),
(117,75,o),
(120,86,o),
(123,94,cs),
(125,99,o),
(121,105,o),
(115,105,cs),
(80,105,ls),
(75,105,o),
(71,102,o),
(69,97,cs),
(66,85,o),
(64,75,o),
(64,65,cs),
(64,1,o),
(116,0,o),
(198,0,cs)
);
},
{
closed = 1;
nodes = (
(130,127,ls),
(135,127,o),
(140,130,o),
(143,134,cs),
(157,158,o),
(174,179,o),
(186,197,cs),
(221,244,o),
(233,252,o),
(251,277,cs),
(256,284,o),
(250,296,o),
(242,296,cs),
(241,296,ls),
(214,296,o),
(124,199,o),
(88,141,cs),
(85,135,o),
(89,127,o),
(96,127,cs)
);
},
{
closed = 1;
nodes = (
(254,64,ls),
(264,64,o),
(265,65,o),
(268,78,cs),
(277,124,o),
(307,266,o),
(309,280,cs),
(311,294,o),
(291,296,o),
(285,282,cs),
(201,77,ls),
(196,65,o),
(201,64,o),
(220,64,cs)
);
},
{
closed = 1;
nodes = (
(432,127,ls),
(439,127,o),
(444,131,o),
(446,138,cs),
(461,199,o),
(447,275,o),
(404,286,cs),
(398,288,o),
(394,283,o),
(394,279,cs),
(394,277,o),
(406,233,o),
(406,213,cs),
(405,186,o),
(398,158,o),
(389,140,cs),
(386,134,o),
(392,127,o),
(398,127,cs)
);
},
{
closed = 1;
nodes = (
(324,392,o),
(329,394,o),
(332,400,cs),
(341,419,o),
(432,611,o),
(432,628,cs),
(432,636,o),
(423,640,o),
(384,640,cs),
(343,640,o),
(342,645,o),
(335,608,cs),
(333,599,o),
(303,437,o),
(300,417,cs),
(297,400,o),
(308,392,o),
(319,392,cs)
);
},
{
closed = 1;
nodes = (
(212,587,o),
(213,589,o),
(215,591,c),
(252,642,o),
(273,657,o),
(347,657,cs),
(424,657,o),
(440,655,o),
(466,653,cs),
(481,651,o),
(487,673,o),
(480,680,cs),
(472,688,o),
(460,700,o),
(412,700,cs),
(333,700,ls),
(285,700,o),
(221,692,o),
(192,663,cs),
(187,658,o),
(179,643,o),
(179,635,cs),
(180,622,o),
(198,595,o),
(202,591,cs),
(205,588,o),
(207,587,o),
(209,587,cs)
);
},
{
closed = 1;
nodes = (
(412,392,o),
(435,415,o),
(450,434,cs),
(470,459,o),
(536,568,o),
(536,593,cs),
(536,608,o),
(520,643,o),
(510,654,cs),
(501,663,o),
(494,644,o),
(487,622,cs),
(483,609,o),
(467,528,o),
(425,460,cs),
(415,444,o),
(391,405,o),
(391,402,cs),
(391,398,ls),
(391,393,o),
(397,392,o),
(401,392,cs)
);
}
);
};
layerId = "21880CC3-4117-4506-B0FD-D38D0D0255BD";
name = "21年10月23日 1:22";
shapes = (
{
closed = 1;
nodes = (
(240,0,ls),
(339,0,o),
(366,3,o),
(409,59,cs),
(419,73,o),
(430,89,o),
(430,98,cs),
(430,102,o),
(427,105,o),
(421,105,cs),
(384,105,ls),
(378,105,o),
(373,102,o),
(370,97,cs),
(359,75,o),
(343,60,o),
(326,53,cs),
(291,38,o),
(254,40,o),
(218,40,cs),
(174,40,o),
(137,40,o),
(122,52,cs),
(118,55,o),
(117,60,o),
(117,66,cs),
(117,75,o),
(120,86,o),
(123,94,cs),
(125,99,o),
(121,105,o),
(115,105,cs),
(80,105,ls),
(75,105,o),
(71,102,o),
(69,97,cs),
(66,85,o),
(64,75,o),
(64,65,cs),
(64,1,o),
(116,0,o),
(198,0,cs)
);
},
{
closed = 1;
nodes = (
(130,127,ls),
(135,127,o),
(140,130,o),
(143,134,cs),
(157,158,o),
(174,179,o),
(186,197,cs),
(221,244,o),
(233,252,o),
(251,277,cs),
(256,284,o),
(250,296,o),
(242,296,cs),
(241,296,ls),
(214,296,o),
(124,199,o),
(88,141,cs),
(85,135,o),
(89,127,o),
(96,127,cs)
);
},
{
closed = 1;
nodes = (
(432,127,ls),
(439,127,o),
(444,131,o),
(446,138,cs),
(461,199,o),
(447,275,o),
(404,286,cs),
(398,288,o),
(394,283,o),
(394,279,cs),
(394,277,o),
(406,233,o),
(406,213,cs),
(405,186,o),
(398,158,o),
(389,140,cs),
(386,134,o),
(392,127,o),
(398,127,cs)
);
}
);
width = 600;
}
);
unicode = 48;
},
{
glyphname = one;
lastChange = "2021-10-23 06:32:10 +0000";
layers = (
{
layerId = m01;
shapes = (
{
alignment = -1;
ref = _part.g;
},
{
alignment = -1;
ref = _part.h;
}
);
width = 600;
},
{
associatedMasterId = m01;
layerId = "5D1697A7-029A-4F91-B445-EE377B5AF123";
name = "21年10月23日 1:22";
shapes = (
{
closed = 1;
nodes = (
(254,64,ls),
(264,64,o),
(265,65,o),
(268,78,cs),
(277,124,o),
(307,266,o),
(309,280,cs),
(311,294,o),
(291,296,o),
(285,282,cs),
(201,77,ls),
(196,65,o),
(201,64,o),
(220,64,cs)
);
},
{
closed = 1;
nodes = (
(324,392,o),
(329,394,o),
(332,400,cs),
(341,419,o),
(432,611,o),
(432,628,cs),
(432,636,o),
(423,640,o),
(384,640,cs),
(343,640,o),
(342,645,o),
(335,608,cs),
(333,599,o),
(303,437,o),
(300,417,cs),
(297,400,o),
(308,392,o),
(319,392,cs)
);
}
);
width = 600;
},
{
associatedMasterId = m01;
layerId = "510C1EA5-C703-441C-8B49-7BAF75DDC081";
name = "21年10月23日 1:22";
shapes = (
{
closed = 1;
nodes = (
(254,64,ls),
(264,64,o),
(265,65,o),
(268,78,cs),
(277,124,o),
(307,266,o),
(309,280,cs),
(311,294,o),
(291,296,o),
(285,282,cs),
(201,77,ls),
(196,65,o),
(201,64,o),
(220,64,cs)
);
},
{
closed = 1;
nodes = (
(324,392,o),
(329,394,o),
(332,400,cs),
(341,419,o),
(432,611,o),
(432,628,cs),
(432,636,o),
(423,640,o),
(384,640,cs),
(343,640,o),
(342,645,o),
(335,608,cs),
(333,599,o),
(303,437,o),
(300,417,cs),
(297,400,o),
(308,392,o),
(319,392,cs)
);
}
);
width = 600;
}
);
unicode = 49;
},
{
glyphname = two;
lastChange = "2021-10-23 06:32:31 +0000";
layers = (
{
layerId = m01;
shapes = (
{
alignment = -1;
ref = _part.a;
},
{
alignment = -1;
ref = _part.b;
},
{
alignment = -1;
ref = _part.e;
},
{
alignment = -1;
ref = _part.d;
}
);
width = 600;
},
{
associatedMasterId = m01;
layerId = "94E36685-5866-484C-B83D-F5CB51F71D84";
name = "21年10月23日 1:22";
shapes = (
{
closed = 1;
nodes = (
(240,0,ls),
(339,0,o),
(366,3,o),
(409,59,cs),
(419,73,o),
(430,89,o),
(430,98,cs),
(430,102,o),
(427,105,o),
(421,105,cs),
(384,105,ls),
(378,105,o),
(373,102,o),
(370,97,cs),
(359,75,o),
(343,60,o),
(326,53,cs),
(291,38,o),
(254,40,o),
(218,40,cs),
(174,40,o),
(137,40,o),
(122,52,cs),
(118,55,o),
(117,60,o),
(117,66,cs),
(117,75,o),
(120,86,o),
(123,94,cs),
(125,99,o),
(121,105,o),
(115,105,cs),
(80,105,ls),
(75,105,o),
(71,102,o),
(69,97,cs),
(66,85,o),
(64,75,o),
(64,65,cs),
(64,1,o),
(116,0,o),
(198,0,cs)
);
},
{
closed = 1;
nodes = (
(130,127,ls),
(135,127,o),
(140,130,o),
(143,134,cs),
(157,158,o),
(174,179,o),
(186,197,cs),
(221,244,o),
(233,252,o),
(251,277,cs),
(256,284,o),
(250,296,o),
(242,296,cs),
(241,296,ls),
(214,296,o),
(124,199,o),
(88,141,cs),
(85,135,o),
(89,127,o),
(96,127,cs)
);
},
{
closed = 1;
nodes = (
(212,587,o),
(213,589,o),
(215,591,c),
(252,642,o),
(273,657,o),
(347,657,cs),
(424,657,o),
(440,655,o),
(466,653,cs),
(481,651,o),
(487,673,o),
(480,680,cs),
(472,688,o),
(460,700,o),
(412,700,cs),
(333,700,ls),
(285,700,o),
(221,692,o),
(192,663,cs),
(187,658,o),
(179,643,o),
(179,635,cs),
(180,622,o),
(198,595,o),
(202,591,cs),
(205,588,o),
(207,587,o),
(209,587,cs)
);
},
{
closed = 1;
nodes = (
(412,392,o),
(435,415,o),
(450,434,cs),
(470,459,o),
(536,568,o),
(536,593,cs),
(536,608,o),
(520,643,o),
(510,654,cs),
(501,663,o),
(494,644,o),
(487,622,cs),
(483,609,o),
(467,528,o),
(425,460,cs),
(415,444,o),
(391,405,o),
(391,402,cs),
(391,398,ls),
(391,393,o),
(397,392,o),
(401,392,cs)
);
}
);
width = 600;
},
{
associatedMasterId = m01;
layerId = "D786DB9B-8DD5-42E6-BE6A-7CA28E1647F2";
name = "21年10月23日 1:22";
shapes = (
{
closed = 1;
nodes = (
(240,0,ls),
(339,0,o),
(366,3,o),
(409,59,cs),
(419,73,o),
(430,89,o),
(430,98,cs),
(430,102,o),
(427,105,o),
(421,105,cs),
(384,105,ls),
(378,105,o),
(373,102,o),
(370,97,cs),
(359,75,o),
(343,60,o),
(326,53,cs),
(291,38,o),
(254,40,o),
(218,40,cs),
(174,40,o),
(137,40,o),
(122,52,cs),
(118,55,o),
(117,60,o),
(117,66,cs),
(117,75,o),
(120,86,o),
(123,94,cs),
(125,99,o),
(121,105,o),
(115,105,cs),
(80,105,ls),
(75,105,o),
(71,102,o),
(69,97,cs),
(66,85,o),
(64,75,o),
(64,65,cs),
(64,1,o),
(116,0,o),
(198,0,cs)
);
},
{
closed = 1;
nodes = (
(130,127,ls),
(135,127,o),
(140,130,o),
(143,134,cs),
(157,158,o),
(174,179,o),
(186,197,cs),
(221,244,o),
(233,252,o),
(251,277,cs),
(256,284,o),
(250,296,o),
(242,296,cs),
(241,296,ls),
(214,296,o),
(124,199,o),
(88,141,cs),
(85,135,o),
(89,127,o),
(96,127,cs)
);
},
{
closed = 1;
nodes = (
(212,587,o),
(213,589,o),
(215,591,c),
(252,642,o),
(273,657,o),
(347,657,cs),
(424,657,o),
(440,655,o),
(466,653,cs),
(481,651,o),
(487,673,o),
(480,680,cs),
(472,688,o),
(460,700,o),
(412,700,cs),
(333,700,ls),
(285,700,o),
(221,692,o),
(192,663,cs),
(187,658,o),
(179,643,o),
(179,635,cs),
(180,622,o),
(198,595,o),
(202,591,cs),
(205,588,o),
(207,587,o),
(209,587,cs)
);
},
{
closed = 1;
nodes = (
(412,392,o),
(435,415,o),
(450,434,cs),
(470,459,o),
(536,568,o),
(536,593,cs),
(536,608,o),
(520,643,o),
(510,654,cs),
(501,663,o),
(494,644,o),
(487,622,cs),
(483,609,o),
(467,528,o),
(425,460,cs),
(415,444,o),
(391,405,o),
(391,402,cs),
(391,398,ls),
(391,393,o),
(397,392,o),
(401,392,cs)
);
}
);
width = 600;
}
);
unicode = 50;
},
{
glyphname = three;
lastChange = "2021-10-23 06:32:57 +0000";
layers = (
{
layerId = m01;
shapes = (
{
alignment = -1;
ref = _part.c;
},
{
alignment = -1;
ref = _part.d;
},
{
alignment = -1;
ref = _part.a;
},
{
ref = _part.b;
}
);
width = 600;
},
{
associatedMasterId = m01;
layerId = "F28006F5-B433-4C43-9A36-62444A6137A0";
name = "21年10月23日 1:22";
shapes = (
{
closed = 1;
nodes = (
(240,0,ls),
(339,0,o),
(366,3,o),
(409,59,cs),
(419,73,o),
(430,89,o),
(430,98,cs),
(430,102,o),
(427,105,o),
(421,105,cs),
(384,105,ls),
(378,105,o),
(373,102,o),
(370,97,cs),
(359,75,o),
(343,60,o),
(326,53,cs),
(291,38,o),
(254,40,o),
(218,40,cs),
(174,40,o),
(137,40,o),
(122,52,cs),
(118,55,o),
(117,60,o),
(117,66,cs),
(117,75,o),
(120,86,o),
(123,94,cs),
(125,99,o),
(121,105,o),
(115,105,cs),
(80,105,ls),
(75,105,o),
(71,102,o),
(69,97,cs),
(66,85,o),
(64,75,o),
(64,65,cs),
(64,1,o),
(116,0,o),
(198,0,cs)
);
},
{
closed = 1;
nodes = (
(432,127,ls),
(439,127,o),
(444,131,o),
(446,138,cs),
(461,199,o),
(447,275,o),
(404,286,cs),
(398,288,o),
(394,283,o),
(394,279,cs),
(394,277,o),
(406,233,o),
(406,213,cs),
(405,186,o),
(398,158,o),
(389,140,cs),
(386,134,o),
(392,127,o),
(398,127,cs)
);
},
{
closed = 1;
nodes = (
(212,587,o),
(213,589,o),
(215,591,c),
(252,642,o),
(273,657,o),
(347,657,cs),
(424,657,o),
(440,655,o),
(466,653,cs),
(481,651,o),
(487,673,o),
(480,680,cs),
(472,688,o),
(460,700,o),
(412,700,cs),
(333,700,ls),
(285,700,o),
(221,692,o),
(192,663,cs),
(187,658,o),
(179,643,o),
(179,635,cs),
(180,622,o),
(198,595,o),
(202,591,cs),
(205,588,o),
(207,587,o),
(209,587,cs)
);
},
{
closed = 1;
nodes = (
(412,392,o),
(435,415,o),
(450,434,cs),
(470,459,o),
(536,568,o),
(536,593,cs),
(536,608,o),
(520,643,o),
(510,654,cs),
(501,663,o),
(494,644,o),
(487,622,cs),
(483,609,o),
(467,528,o),
(425,460,cs),
(415,444,o),
(391,405,o),
(391,402,cs),
(391,398,ls),
(391,393,o),
(397,392,o),
(401,392,cs)
);
}
);
width = 600;
},
{
associatedMasterId = m01;
layerId = "85867953-AC43-41CB-A3CC-A1F8B1F7B5DC";
name = "21年10月23日 1:22";
shapes = (
{
closed = 1;
nodes = (
(240,0,ls),
(339,0,o),
(366,3,o),
(409,59,cs),
(419,73,o),
(430,89,o),
(430,98,cs),
(430,102,o),
(427,105,o),
(421,105,cs),
(384,105,ls),
(378,105,o),
(373,102,o),
(370,97,cs),
(359,75,o),
(343,60,o),
(326,53,cs),
(291,38,o),
(254,40,o),
(218,40,cs),
(174,40,o),
(137,40,o),
(122,52,cs),
(118,55,o),
(117,60,o),
(117,66,cs),
(117,75,o),
(120,86,o),
(123,94,cs),
(125,99,o),
(121,105,o),
(115,105,cs),
(80,105,ls),
(75,105,o),
(71,102,o),
(69,97,cs),
(66,85,o),
(64,75,o),
(64,65,cs),
(64,1,o),
(116,0,o),
(198,0,cs)
);
},
{
closed = 1;
nodes = (
(432,127,ls),
(439,127,o),
(444,131,o),
(446,138,cs),
(461,199,o),
(447,275,o),
(404,286,cs),
(398,288,o),
(394,283,o),
(394,279,cs),
(394,277,o),
(406,233,o),
(406,213,cs),
(405,186,o),
(398,158,o),
(389,140,cs),
(386,134,o),
(392,127,o),
(398,127,cs)
);
},
{
closed = 1;
nodes = (
(212,587,o),
(213,589,o),
(215,591,c),
(252,642,o),
(273,657,o),
(347,657,cs),
(424,657,o),
(440,655,o),
(466,653,cs),
(481,651,o),
(487,673,o),
(480,680,cs),
(472,688,o),
(460,700,o),
(412,700,cs),
(333,700,ls),
(285,700,o),
(221,692,o),
(192,663,cs),
(187,658,o),
(179,643,o),
(179,635,cs),
(180,622,o),
(198,595,o),
(202,591,cs),
(205,588,o),
(207,587,o),
(209,587,cs)
);
},
{
closed = 1;
nodes = (
(412,392,o),
(435,415,o),
(450,434,cs),
(470,459,o),
(536,568,o),
(536,593,cs),
(536,608,o),
(520,643,o),
(510,654,cs),
(501,663,o),
(494,644,o),
(487,622,cs),
(483,609,o),
(467,528,o),
(425,460,cs),
(415,444,o),
(391,405,o),
(391,402,cs),
(391,398,ls),
(391,393,o),
(397,392,o),
(401,392,cs)
);
}
);
width = 600;
}
);
unicode = 51;
},
{
glyphname = four;
lastChange = "2021-10-23 06:30:24 +0000";
layers = (
{
layerId = m01;
shapes = (
{
alignment = -1;
ref = _part.f;
},
{
alignment = -1;
ref = _part.g;
},
{
alignment = -1;
ref = _part.h;
}
);
width = 600;
},
{
associatedMasterId = m01;
layerId = "0B9978C3-0DF3-4684-81D6-D98D28730557";
name = "21年10月23日 1:22";
shapes = (
{
closed = 1;
nodes = (
(370,332,ls),
(381,332,o),
(384,339,o),
(384,345,cs),
(384,355,o),
(378,365,o),
(367,365,cs),
(233,365,ls),
(192,365,o),
(184,373,o),
(184,404,cs),
(184,440,o),
(192,511,o),
(203,551,cs),
(204,554,o),
(202,557,o),
(200,559,cs),
(181,578,o),
(181,574,o),
(171,599,cs),
(169,603,o),
(167,604,o),
(165,604,cs),
(156,604,o),
(146,571,o),
(141,539,cs),
(129,466,o),
(124,445,o),
(124,411,cs),
(124,396,o),
(126,383,o),
(130,372,cs),
(143,339,o),
(186,332,o),
(216,332,cs)
);
},
{
closed = 1;
nodes = (
(254,64,ls),
(264,64,o),
(265,65,o),
(268,78,cs),
(277,124,o),
(307,266,o),
(309,280,cs),
(311,294,o),
(291,296,o),
(285,282,cs),
(201,77,ls),
(196,65,o),
(201,64,o),
(220,64,cs)
);
},
{
closed = 1;
nodes = (
(324,392,o),
(329,394,o),
(332,400,cs),
(341,419,o),
(432,611,o),
(432,628,cs),
(432,636,o),
(423,640,o),
(384,640,cs),
(343,640,o),
(342,645,o),
(335,608,cs),
(333,599,o),
(303,437,o),
(300,417,cs),
(297,400,o),
(308,392,o),
(319,392,cs)
);
}
);
width = 600;
},
{
associatedMasterId = m01;
layerId = "F4C7F601-37ED-4FD1-9857-FB5031975308";
name = "21年10月23日 1:22";
shapes = (
{
closed = 1;
nodes = (
(370,332,ls),
(381,332,o),
(384,339,o),
(384,345,cs),
(384,355,o),
(378,365,o),
(367,365,cs),
(233,365,ls),
(192,365,o),
(184,373,o),
(184,404,cs),
(184,440,o),
(192,511,o),
(203,551,cs),
(204,554,o),
(202,557,o),
(200,559,cs),
(181,578,o),
(181,574,o),
(171,599,cs),
(169,603,o),
(167,604,o),
(165,604,cs),
(156,604,o),
(146,571,o),
(141,539,cs),
(129,466,o),
(124,445,o),
(124,411,cs),
(124,396,o),
(126,383,o),
(130,372,cs),
(143,339,o),
(186,332,o),
(216,332,cs)
);
},
{
closed = 1;
nodes = (
(254,64,ls),
(264,64,o),
(265,65,o),
(268,78,cs),
(277,124,o),
(307,266,o),
(309,280,cs),
(311,294,o),
(291,296,o),
(285,282,cs),
(201,77,ls),
(196,65,o),
(201,64,o),
(220,64,cs)
);
},
{
closed = 1;
nodes = (
(324,392,o),
(329,394,o),
(332,400,cs),
(341,419,o),
(432,611,o),
(432,628,cs),
(432,636,o),
(423,640,o),
(384,640,cs),
(343,640,o),
(342,645,o),
(335,608,cs),
(333,599,o),
(303,437,o),
(300,417,cs),
(297,400,o),
(308,392,o),
(319,392,cs)
);
}
);
width = 600;
}
);
unicode = 52;
},
{
glyphname = five;
lastChange = "2021-10-23 06:33:30 +0000";
layers = (
{
layerId = m01;
shapes = (
{
alignment = -1;
ref = _part.a;
},
{
alignment = -1;
ref = _part.f;
},
{
alignment = -1;
ref = _part.c;
},
{
alignment = -1;
ref = _part.d;
}
);
width = 600;
},
{
associatedMasterId = m01;
layerId = "ADB9F5C4-C753-4564-8111-EA7146E137DE";
name = "21年10月23日 1:22";
shapes = (
{
closed = 1;
nodes = (
(370,332,ls),
(381,332,o),
(384,339,o),
(384,345,cs),
(384,355,o),
(378,365,o),
(367,365,cs),
(233,365,ls),
(192,365,o),
(184,373,o),
(184,404,cs),
(184,440,o),
(192,511,o),
(203,551,cs),
(204,554,o),
(202,557,o),
(200,559,cs),
(181,578,o),
(181,574,o),
(171,599,cs),
(169,603,o),
(167,604,o),
(165,604,cs),
(156,604,o),
(146,571,o),
(141,539,cs),
(129,466,o),
(124,445,o),
(124,411,cs),
(124,396,o),
(126,383,o),
(130,372,cs),
(143,339,o),
(186,332,o),
(216,332,cs)
);
},
{
closed = 1;
nodes = (
(240,0,ls),
(339,0,o),
(366,3,o),
(409,59,cs),
(419,73,o),
(430,89,o),
(430,98,cs),
(430,102,o),
(427,105,o),
(421,105,cs),
(384,105,ls),
(378,105,o),
(373,102,o),
(370,97,cs),
(359,75,o),
(343,60,o),
(326,53,cs),
(291,38,o),
(254,40,o),
(218,40,cs),
(174,40,o),
(137,40,o),
(122,52,cs),
(118,55,o),
(117,60,o),
(117,66,cs),
(117,75,o),
(120,86,o),
(123,94,cs),
(125,99,o),
(121,105,o),
(115,105,cs),
(80,105,ls),
(75,105,o),
(71,102,o),
(69,97,cs),
(66,85,o),
(64,75,o),
(64,65,cs),
(64,1,o),
(116,0,o),
(198,0,cs)
);
},
{
closed = 1;
nodes = (
(432,127,ls),
(439,127,o),
(444,131,o),
(446,138,cs),
(461,199,o),
(447,275,o),
(404,286,cs),
(398,288,o),
(394,283,o),
(394,279,cs),
(394,277,o),
(406,233,o),
(406,213,cs),
(405,186,o),
(398,158,o),
(389,140,cs),
(386,134,o),
(392,127,o),
(398,127,cs)
);
},
{
closed = 1;
nodes = (
(212,587,o),
(213,589,o),
(215,591,c),
(252,642,o),
(273,657,o),
(347,657,cs),
(424,657,o),
(440,655,o),
(466,653,cs),
(481,651,o),
(487,673,o),
(480,680,cs),
(472,688,o),
(460,700,o),
(412,700,cs),
(333,700,ls),
(285,700,o),
(221,692,o),
(192,663,cs),
(187,658,o),
(179,643,o),
(179,635,cs),
(180,622,o),
(198,595,o),
(202,591,cs),
(205,588,o),
(207,587,o),
(209,587,cs)
);
}
);
width = 600;
},
{
associatedMasterId = m01;
layerId = "83822A32-9F24-4FF4-B4B0-B5FE4B1FEC57";
name = "21年10月23日 1:22";
shapes = (
{
closed = 1;
nodes = (
(370,332,ls),
(381,332,o),
(384,339,o),
(384,345,cs),
(384,355,o),
(378,365,o),
(367,365,cs),
(233,365,ls),
(192,365,o),
(184,373,o),
(184,404,cs),
(184,440,o),
(192,511,o),
(203,551,cs),
(204,554,o),
(202,557,o),
(200,559,cs),
(181,578,o),
(181,574,o),
(171,599,cs),
(169,603,o),
(167,604,o),
(165,604,cs),
(156,604,o),
(146,571,o),
(141,539,cs),
(129,466,o),
(124,445,o),
(124,411,cs),
(124,396,o),
(126,383,o),
(130,372,cs),
(143,339,o),
(186,332,o),
(216,332,cs)
);
},
{
closed = 1;
nodes = (
(240,0,ls),
(339,0,o),
(366,3,o),
(409,59,cs),
(419,73,o),
(430,89,o),
(430,98,cs),
(430,102,o),
(427,105,o),
(421,105,cs),
(384,105,ls),
(378,105,o),
(373,102,o),
(370,97,cs),
(359,75,o),
(343,60,o),
(326,53,cs),
(291,38,o),
(254,40,o),
(218,40,cs),
(174,40,o),
(137,40,o),
(122,52,cs),
(118,55,o),
(117,60,o),
(117,66,cs),
(117,75,o),
(120,86,o),
(123,94,cs),
(125,99,o),
(121,105,o),
(115,105,cs),
(80,105,ls),
(75,105,o),
(71,102,o),
(69,97,cs),
(66,85,o),
(64,75,o),
(64,65,cs),
(64,1,o),
(116,0,o),
(198,0,cs)
);
},
{
closed = 1;
nodes = (
(432,127,ls),
(439,127,o),
(444,131,o),
(446,138,cs),
(461,199,o),
(447,275,o),
(404,286,cs),
(398,288,o),
(394,283,o),
(394,279,cs),
(394,277,o),
(406,233,o),
(406,213,cs),
(405,186,o),
(398,158,o),
(389,140,cs),
(386,134,o),
(392,127,o),
(398,127,cs)
);
},
{
closed = 1;
nodes = (
(212,587,o),
(213,589,o),
(215,591,c),
(252,642,o),
(273,657,o),
(347,657,cs),
(424,657,o),
(440,655,o),
(466,653,cs),
(481,651,o),
(487,673,o),
(480,680,cs),
(472,688,o),
(460,700,o),
(412,700,cs),
(333,700,ls),
(285,700,o),
(221,692,o),
(192,663,cs),
(187,658,o),
(179,643,o),
(179,635,cs),
(180,622,o),
(198,595,o),
(202,591,cs),
(205,588,o),
(207,587,o),
(209,587,cs)
);
}
);
width = 600;
}
);
unicode = 53;
},
{
glyphname = six;
lastChange = "2021-10-23 06:33:53 +0000";
layers = (
{
layerId = m01;
shapes = (
{
alignment = -1;
ref = _part.b;
},
{
alignment = -1;
ref = _part.c;
},
{
alignment = -1;
ref = _part.d;
},
{
alignment = -1;
ref = _part.e;
}
);
width = 600;
},
{
associatedMasterId = m01;
layerId = "38389AA3-083C-4F64-B584-E07E979906C8";
name = "21年10月23日 1:22";
shapes = (
{
closed = 1;
nodes = (
(240,0,ls),
(339,0,o),
(366,3,o),
(409,59,cs),
(419,73,o),
(430,89,o),
(430,98,cs),
(430,102,o),
(427,105,o),
(421,105,cs),
(384,105,ls),
(378,105,o),
(373,102,o),
(370,97,cs),
(359,75,o),
(343,60,o),
(326,53,cs),
(291,38,o),
(254,40,o),
(218,40,cs),
(174,40,o),
(137,40,o),
(122,52,cs),
(118,55,o),
(117,60,o),
(117,66,cs),
(117,75,o),
(120,86,o),
(123,94,cs),
(125,99,o),
(121,105,o),
(115,105,cs),
(80,105,ls),
(75,105,o),
(71,102,o),
(69,97,cs),
(66,85,o),
(64,75,o),
(64,65,cs),
(64,1,o),
(116,0,o),
(198,0,cs)
);
},
{
closed = 1;
nodes = (
(130,127,ls),
(135,127,o),
(140,130,o),
(143,134,cs),
(157,158,o),
(174,179,o),
(186,197,cs),
(221,244,o),
(233,252,o),
(251,277,cs),
(256,284,o),
(250,296,o),
(242,296,cs),
(241,296,ls),
(214,296,o),
(124,199,o),
(88,141,cs),
(85,135,o),
(89,127,o),
(96,127,cs)
);
},
{
closed = 1;
nodes = (
(432,127,ls),
(439,127,o),
(444,131,o),
(446,138,cs),
(461,199,o),
(447,275,o),
(404,286,cs),
(398,288,o),
(394,283,o),
(394,279,cs),
(394,277,o),
(406,233,o),
(406,213,cs),
(405,186,o),
(398,158,o),
(389,140,cs),
(386,134,o),
(392,127,o),
(398,127,cs)
);
},
{
closed = 1;
nodes = (
(412,392,o),
(435,415,o),
(450,434,cs),
(470,459,o),
(536,568,o),
(536,593,cs),
(536,608,o),
(520,643,o),
(510,654,cs),
(501,663,o),
(494,644,o),
(487,622,cs),
(483,609,o),
(467,528,o),
(425,460,cs),
(415,444,o),
(391,405,o),
(391,402,cs),
(391,398,ls),
(391,393,o),
(397,392,o),
(401,392,cs)
);
}
);
width = 600;
},
{
associatedMasterId = m01;
layerId = "B4EC7359-4A91-4B0B-834C-08EF166FA8C6";
name = "21年10月23日 1:22";
shapes = (
{
closed = 1;
nodes = (
(240,0,ls),
(339,0,o),
(366,3,o),
(409,59,cs),
(419,73,o),
(430,89,o),
(430,98,cs),
(430,102,o),
(427,105,o),
(421,105,cs),
(384,105,ls),
(378,105,o),
(373,102,o),
(370,97,cs),
(359,75,o),
(343,60,o),
(326,53,cs),
(291,38,o),
(254,40,o),
(218,40,cs),
(174,40,o),
(137,40,o),
(122,52,cs),
(118,55,o),
(117,60,o),
(117,66,cs),
(117,75,o),
(120,86,o),
(123,94,cs),
(125,99,o),
(121,105,o),
(115,105,cs),
(80,105,ls),
(75,105,o),
(71,102,o),
(69,97,cs),
(66,85,o),
(64,75,o),
(64,65,cs),
(64,1,o),
(116,0,o),
(198,0,cs)
);
},
{
closed = 1;
nodes = (
(130,127,ls),
(135,127,o),
(140,130,o),
(143,134,cs),
(157,158,o),
(174,179,o),
(186,197,cs),
(221,244,o),
(233,252,o),
(251,277,cs),
(256,284,o),
(250,296,o),
(242,296,cs),
(241,296,ls),
(214,296,o),
(124,199,o),
(88,141,cs),
(85,135,o),
(89,127,o),
(96,127,cs)
);
},
{
closed = 1;
nodes = (
(432,127,ls),
(439,127,o),
(444,131,o),
(446,138,cs),
(461,199,o),
(447,275,o),
(404,286,cs),
(398,288,o),
(394,283,o),
(394,279,cs),
(394,277,o),
(406,233,o),
(406,213,cs),
(405,186,o),
(398,158,o),
(389,140,cs),
(386,134,o),
(392,127,o),
(398,127,cs)
);
},
{
closed = 1;
nodes = (
(412,392,o),
(435,415,o),
(450,434,cs),
(470,459,o),
(536,568,o),
(536,593,cs),
(536,608,o),
(520,643,o),
(510,654,cs),
(501,663,o),
(494,644,o),
(487,622,cs),
(483,609,o),
(467,528,o),
(425,460,cs),
(415,444,o),
(391,405,o),
(391,402,cs),
(391,398,ls),
(391,393,o),
(397,392,o),
(401,392,cs)
);
}
);
width = 600;
}
);
unicode = 54;
},
{
glyphname = seven;
lastChange = "2021-10-23 06:34:32 +0000";
layers = (
{
layerId = m01;
shapes = (
{
alignment = -1;
ref = _part.a;
},
{
alignment = -1;
ref = _part.b;
},
{
alignment = -1;
ref = _part.h;
}
);
width = 600;
},
{
associatedMasterId = m01;
layerId = "EB8C6F30-9929-49AD-84F2-9897AF060CFC";
name = "21年10月23日 1:22";
shapes = (
{
closed = 1;
nodes = (
(254,64,ls),
(264,64,o),
(265,65,o),
(268,78,cs),
(277,124,o),
(307,266,o),
(309,280,cs),
(311,294,o),
(291,296,o),
(285,282,cs),
(201,77,ls),
(196,65,o),
(201,64,o),
(220,64,cs)
);
},
{
closed = 1;
nodes = (
(212,587,o),
(213,589,o),
(215,591,c),
(252,642,o),
(273,657,o),
(347,657,cs),
(424,657,o),
(440,655,o),
(466,653,cs),
(481,651,o),
(487,673,o),
(480,680,cs),
(472,688,o),
(460,700,o),
(412,700,cs),
(333,700,ls),
(285,700,o),
(221,692,o),
(192,663,cs),
(187,658,o),
(179,643,o),
(179,635,cs),
(180,622,o),
(198,595,o),
(202,591,cs),
(205,588,o),
(207,587,o),
(209,587,cs)
);
},
{
closed = 1;
nodes = (
(412,392,o),
(435,415,o),
(450,434,cs),
(470,459,o),
(536,568,o),
(536,593,cs),
(536,608,o),
(520,643,o),
(510,654,cs),
(501,663,o),
(494,644,o),
(487,622,cs),
(483,609,o),
(467,528,o),
(425,460,cs),
(415,444,o),
(391,405,o),
(391,402,cs),
(391,398,ls),
(391,393,o),
(397,392,o),
(401,392,cs)
);
}
);
width = 600;
},
{
associatedMasterId = m01;
layerId = "673F08AE-3D25-494C-A928-823C61C84221";
name = "21年10月23日 1:22";
shapes = (
{
closed = 1;
nodes = (
(254,64,ls),
(264,64,o),
(265,65,o),
(268,78,cs),
(277,124,o),
(307,266,o),
(309,280,cs),
(311,294,o),
(291,296,o),
(285,282,cs),
(201,77,ls),
(196,65,o),
(201,64,o),
(220,64,cs)
);
},
{
closed = 1;
nodes = (
(212,587,o),
(213,589,o),
(215,591,c),
(252,642,o),
(273,657,o),
(347,657,cs),
(424,657,o),
(440,655,o),
(466,653,cs),
(481,651,o),
(487,673,o),
(480,680,cs),
(472,688,o),
(460,700,o),
(412,700,cs),
(333,700,ls),
(285,700,o),
(221,692,o),
(192,663,cs),
(187,658,o),
(179,643,o),
(179,635,cs),
(180,622,o),
(198,595,o),
(202,591,cs),
(205,588,o),
(207,587,o),
(209,587,cs)
);
},
{
closed = 1;
nodes = (
(412,392,o),
(435,415,o),
(450,434,cs),
(470,459,o),
(536,568,o),
(536,593,cs),
(536,608,o),
(520,643,o),
(510,654,cs),
(501,663,o),
(494,644,o),
(487,622,cs),
(483,609,o),
(467,528,o),
(425,460,cs),
(415,444,o),
(391,405,o),
(391,402,cs),
(391,398,ls),
(391,393,o),
(397,392,o),
(401,392,cs)
);
}
);
width = 600;
}
);
unicode = 55;
},
{
glyphname = eight;
lastChange = "2021-10-23 06:35:08 +0000";
layers = (
{
layerId = m01;
shapes = (
{
alignment = -1;
ref = _part.a;
},
{
alignment = -1;
ref = _part.b;
},
{
alignment = -1;
ref = _part.c;
},
{
alignment = -1;
ref = _part.d;
},
{
alignment = -1;
ref = _part.f;
},
{
ref = _part.e;
}
);
width = 600;
},
{
associatedMasterId = m01;
layerId = "F6EF9881-F7DB-41FC-A419-F05EE9F66B00";
name = "21年10月23日 1:22";
shapes = (
{
closed = 1;
nodes = (
(370,332,ls),
(381,332,o),
(384,339,o),
(384,345,cs),
(384,355,o),
(378,365,o),
(367,365,cs),
(233,365,ls),
(192,365,o),
(184,373,o),
(184,404,cs),
(184,440,o),
(192,511,o),
(203,551,cs),
(204,554,o),
(202,557,o),
(200,559,cs),
(181,578,o),
(181,574,o),
(171,599,cs),
(169,603,o),
(167,604,o),
(165,604,cs),
(156,604,o),
(146,571,o),
(141,539,cs),
(129,466,o),
(124,445,o),
(124,411,cs),
(124,396,o),
(126,383,o),
(130,372,cs),
(143,339,o),
(186,332,o),
(216,332,cs)
);
},
{
closed = 1;
nodes = (
(240,0,ls),
(339,0,o),
(366,3,o),
(409,59,cs),
(419,73,o),
(430,89,o),
(430,98,cs),
(430,102,o),
(427,105,o),
(421,105,cs),
(384,105,ls),
(378,105,o),
(373,102,o),
(370,97,cs),
(359,75,o),
(343,60,o),
(326,53,cs),
(291,38,o),
(254,40,o),
(218,40,cs),
(174,40,o),
(137,40,o),
(122,52,cs),
(118,55,o),
(117,60,o),
(117,66,cs),
(117,75,o),
(120,86,o),
(123,94,cs),
(125,99,o),
(121,105,o),
(115,105,cs),
(80,105,ls),
(75,105,o),
(71,102,o),
(69,97,cs),
(66,85,o),
(64,75,o),
(64,65,cs),
(64,1,o),
(116,0,o),
(198,0,cs)
);
},
{
closed = 1;
nodes = (
(130,127,ls),
(135,127,o),
(140,130,o),
(143,134,cs),
(157,158,o),
(174,179,o),
(186,197,cs),
(221,244,o),
(233,252,o),
(251,277,cs),
(256,284,o),
(250,296,o),
(242,296,cs),
(241,296,ls),
(214,296,o),
(124,199,o),
(88,141,cs),
(85,135,o),
(89,127,o),
(96,127,cs)
);
},
{
closed = 1;
nodes = (
(432,127,ls),
(439,127,o),
(444,131,o),
(446,138,cs),
(461,199,o),
(447,275,o),
(404,286,cs),
(398,288,o),
(394,283,o),
(394,279,cs),
(394,277,o),
(406,233,o),
(406,213,cs),
(405,186,o),
(398,158,o),
(389,140,cs),
(386,134,o),
(392,127,o),
(398,127,cs)
);
},
{
closed = 1;
nodes = (
(212,587,o),
(213,589,o),
(215,591,c),
(252,642,o),
(273,657,o),
(347,657,cs),
(424,657,o),
(440,655,o),
(466,653,cs),
(481,651,o),
(487,673,o),
(480,680,cs),
(472,688,o),
(460,700,o),
(412,700,cs),
(333,700,ls),
(285,700,o),
(221,692,o),
(192,663,cs),
(187,658,o),
(179,643,o),
(179,635,cs),
(180,622,o),
(198,595,o),
(202,591,cs),
(205,588,o),
(207,587,o),
(209,587,cs)
);
},
{
closed = 1;
nodes = (
(412,392,o),
(435,415,o),
(450,434,cs),
(470,459,o),
(536,568,o),
(536,593,cs),
(536,608,o),
(520,643,o),
(510,654,cs),
(501,663,o),
(494,644,o),
(487,622,cs),
(483,609,o),
(467,528,o),
(425,460,cs),
(415,444,o),
(391,405,o),
(391,402,cs),
(391,398,ls),
(391,393,o),
(397,392,o),
(401,392,cs)
);
}
);
width = 600;
},
{
associatedMasterId = m01;
layerId = "AEC64F9A-993C-4E93-9A41-ECFDCAB626D9";
name = "21年10月23日 1:22";
shapes = (
{
closed = 1;
nodes = (
(370,332,ls),
(381,332,o),
(384,339,o),
(384,345,cs),
(384,355,o),
(378,365,o),
(367,365,cs),
(233,365,ls),
(192,365,o),
(184,373,o),
(184,404,cs),
(184,440,o),
(192,511,o),
(203,551,cs),
(204,554,o),
(202,557,o),
(200,559,cs),
(181,578,o),
(181,574,o),
(171,599,cs),
(169,603,o),
(167,604,o),
(165,604,cs),
(156,604,o),
(146,571,o),
(141,539,cs),
(129,466,o),
(124,445,o),
(124,411,cs),
(124,396,o),
(126,383,o),
(130,372,cs),
(143,339,o),
(186,332,o),
(216,332,cs)
);
},
{
closed = 1;
nodes = (
(240,0,ls),
(339,0,o),
(366,3,o),
(409,59,cs),
(419,73,o),
(430,89,o),
(430,98,cs),
(430,102,o),
(427,105,o),
(421,105,cs),
(384,105,ls),
(378,105,o),
(373,102,o),
(370,97,cs),
(359,75,o),
(343,60,o),
(326,53,cs),
(291,38,o),
(254,40,o),
(218,40,cs),
(174,40,o),
(137,40,o),
(122,52,cs),
(118,55,o),
(117,60,o),
(117,66,cs),
(117,75,o),
(120,86,o),
(123,94,cs),
(125,99,o),
(121,105,o),
(115,105,cs),
(80,105,ls),
(75,105,o),
(71,102,o),
(69,97,cs),
(66,85,o),
(64,75,o),
(64,65,cs),
(64,1,o),
(116,0,o),
(198,0,cs)
);
},
{
closed = 1;
nodes = (
(130,127,ls),
(135,127,o),
(140,130,o),
(143,134,cs),
(157,158,o),
(174,179,o),
(186,197,cs),
(221,244,o),
(233,252,o),
(251,277,cs),
(256,284,o),
(250,296,o),
(242,296,cs),
(241,296,ls),
(214,296,o),
(124,199,o),
(88,141,cs),
(85,135,o),
(89,127,o),
(96,127,cs)
);
},
{
closed = 1;
nodes = (
(432,127,ls),
(439,127,o),
(444,131,o),
(446,138,cs),
(461,199,o),
(447,275,o),
(404,286,cs),
(398,288,o),
(394,283,o),
(394,279,cs),
(394,277,o),
(406,233,o),
(406,213,cs),
(405,186,o),
(398,158,o),
(389,140,cs),
(386,134,o),
(392,127,o),
(398,127,cs)
);
},
{
closed = 1;
nodes = (
(212,587,o),
(213,589,o),
(215,591,c),
(252,642,o),
(273,657,o),
(347,657,cs),
(424,657,o),
(440,655,o),
(466,653,cs),
(481,651,o),
(487,673,o),
(480,680,cs),
(472,688,o),
(460,700,o),
(412,700,cs),
(333,700,ls),
(285,700,o),
(221,692,o),
(192,663,cs),
(187,658,o),
(179,643,o),
(179,635,cs),
(180,622,o),
(198,595,o),
(202,591,cs),
(205,588,o),
(207,587,o),
(209,587,cs)
);
},
{
closed = 1;
nodes = (
(412,392,o),
(435,415,o),
(450,434,cs),
(470,459,o),
(536,568,o),
(536,593,cs),
(536,608,o),
(520,643,o),
(510,654,cs),
(501,663,o),
(494,644,o),
(487,622,cs),
(483,609,o),
(467,528,o),
(425,460,cs),
(415,444,o),
(391,405,o),
(391,402,cs),
(391,398,ls),
(391,393,o),
(397,392,o),
(401,392,cs)
);
}
);
width = 600;
}
);
unicode = 56;
},
{
glyphname = nine;
lastChange = "2021-10-23 06:35:36 +0000";
layers = (
{
layerId = m01;
shapes = (
{
alignment = -1;
ref = _part.a;
},
{
alignment = -1;
ref = _part.b;
},
{
alignment = -1;
ref = _part.f;
},
{
alignment = -1;
ref = _part.h;
}
);
width = 600;
},
{
associatedMasterId = m01;
layerId = "F02994D2-7F59-44F3-B411-1381C7F7E282";
name = "21年10月23日 1:22";
shapes = (
{
closed = 1;
nodes = (
(370,332,ls),
(381,332,o),
(384,339,o),
(384,345,cs),
(384,355,o),
(378,365,o),
(367,365,cs),
(233,365,ls),
(192,365,o),
(184,373,o),
(184,404,cs),
(184,440,o),
(192,511,o),
(203,551,cs),
(204,554,o),
(202,557,o),
(200,559,cs),
(181,578,o),
(181,574,o),
(171,599,cs),
(169,603,o),
(167,604,o),
(165,604,cs),
(156,604,o),
(146,571,o),
(141,539,cs),
(129,466,o),
(124,445,o),
(124,411,cs),
(124,396,o),
(126,383,o),
(130,372,cs),
(143,339,o),
(186,332,o),
(216,332,cs)
);
},
{
closed = 1;
nodes = (
(254,64,ls),
(264,64,o),
(265,65,o),
(268,78,cs),
(277,124,o),
(307,266,o),
(309,280,cs),
(311,294,o),
(291,296,o),
(285,282,cs),
(201,77,ls),
(196,65,o),
(201,64,o),
(220,64,cs)
);
},
{
closed = 1;
nodes = (
(212,587,o),
(213,589,o),
(215,591,c),
(252,642,o),
(273,657,o),
(347,657,cs),
(424,657,o),
(440,655,o),
(466,653,cs),
(481,651,o),
(487,673,o),
(480,680,cs),
(472,688,o),
(460,700,o),
(412,700,cs),
(333,700,ls),
(285,700,o),
(221,692,o),
(192,663,cs),
(187,658,o),
(179,643,o),
(179,635,cs),
(180,622,o),
(198,595,o),
(202,591,cs),
(205,588,o),
(207,587,o),
(209,587,cs)
);
},
{
closed = 1;
nodes = (
(412,392,o),
(435,415,o),
(450,434,cs),
(470,459,o),
(536,568,o),
(536,593,cs),
(536,608,o),
(520,643,o),
(510,654,cs),
(501,663,o),
(494,644,o),
(487,622,cs),
(483,609,o),
(467,528,o),
(425,460,cs),
(415,444,o),
(391,405,o),
(391,402,cs),
(391,398,ls),
(391,393,o),
(397,392,o),
(401,392,cs)
);
}
);
width = 600;
},
{
associatedMasterId = m01;
layerId = "EC45D59C-8965-43D9-9114-B525B87C0A0D";
name = "21年10月23日 1:22";
shapes = (
{
closed = 1;
nodes = (
(370,332,ls),
(381,332,o),
(384,339,o),
(384,345,cs),
(384,355,o),
(378,365,o),
(367,365,cs),
(233,365,ls),
(192,365,o),
(184,373,o),
(184,404,cs),
(184,440,o),
(192,511,o),
(203,551,cs),
(204,554,o),
(202,557,o),
(200,559,cs),
(181,578,o),
(181,574,o),
(171,599,cs),
(169,603,o),
(167,604,o),
(165,604,cs),
(156,604,o),
(146,571,o),
(141,539,cs),
(129,466,o),
(124,445,o),
(124,411,cs),
(124,396,o),
(126,383,o),
(130,372,cs),
(143,339,o),
(186,332,o),
(216,332,cs)
);
},
{
closed = 1;
nodes = (
(254,64,ls),
(264,64,o),
(265,65,o),
(268,78,cs),
(277,124,o),
(307,266,o),
(309,280,cs),
(311,294,o),
(291,296,o),
(285,282,cs),
(201,77,ls),
(196,65,o),
(201,64,o),
(220,64,cs)
);
},
{
closed = 1;
nodes = (
(212,587,o),
(213,589,o),
(215,591,c),
(252,642,o),
(273,657,o),
(347,657,cs),
(424,657,o),
(440,655,o),
(466,653,cs),
(481,651,o),
(487,673,o),
(480,680,cs),
(472,688,o),
(460,700,o),
(412,700,cs),
(333,700,ls),
(285,700,o),
(221,692,o),
(192,663,cs),
(187,658,o),
(179,643,o),
(179,635,cs),
(180,622,o),
(198,595,o),
(202,591,cs),
(205,588,o),
(207,587,o),
(209,587,cs)
);
},
{
closed = 1;
nodes = (
(412,392,o),
(435,415,o),
(450,434,cs),
(470,459,o),
(536,568,o),
(536,593,cs),
(536,608,o),
(520,643,o),
(510,654,cs),
(501,663,o),
(494,644,o),
(487,622,cs),
(483,609,o),
(467,528,o),
(425,460,cs),
(415,444,o),
(391,405,o),
(391,402,cs),
(391,398,ls),
(391,393,o),
(397,392,o),
(401,392,cs)
);
}
);
width = 600;
}
);
unicode = 57;
},
{
glyphname = six.cv01;
lastChange = "2021-10-23 06:36:02 +0000";
layers = (
{
layerId = m01;
shapes = (
{
alignment = -1;
ref = _part.g;
},
{
alignment = -1;
ref = _part.c;
},
{
alignment = -1;
ref = _part.d;
},
{
alignment = -1;
ref = _part.e;
}
);
width = 600;
},
{
associatedMasterId = m01;
layerId = "4973AD94-1CDC-430B-A5A7-B669DFCB980B";
name = "21年10月23日 1:22";
shapes = (
{
closed = 1;
nodes = (
(240,0,ls),
(339,0,o),
(366,3,o),
(409,59,cs),
(419,73,o),
(430,89,o),
(430,98,cs),
(430,102,o),
(427,105,o),
(421,105,cs),
(384,105,ls),
(378,105,o),
(373,102,o),
(370,97,cs),
(359,75,o),
(343,60,o),
(326,53,cs),
(291,38,o),
(254,40,o),
(218,40,cs),
(174,40,o),
(137,40,o),
(122,52,cs),
(118,55,o),
(117,60,o),
(117,66,cs),
(117,75,o),
(120,86,o),
(123,94,cs),
(125,99,o),
(121,105,o),
(115,105,cs),
(80,105,ls),
(75,105,o),
(71,102,o),
(69,97,cs),
(66,85,o),
(64,75,o),
(64,65,cs),
(64,1,o),
(116,0,o),
(198,0,cs)
);
},
{
closed = 1;
nodes = (
(130,127,ls),
(135,127,o),
(140,130,o),
(143,134,cs),
(157,158,o),
(174,179,o),
(186,197,cs),
(221,244,o),
(233,252,o),
(251,277,cs),
(256,284,o),
(250,296,o),
(242,296,cs),
(241,296,ls),
(214,296,o),
(124,199,o),
(88,141,cs),
(85,135,o),
(89,127,o),
(96,127,cs)
);
},
{
closed = 1;
nodes = (
(432,127,ls),
(439,127,o),
(444,131,o),
(446,138,cs),
(461,199,o),
(447,275,o),
(404,286,cs),
(398,288,o),
(394,283,o),
(394,279,cs),
(394,277,o),
(406,233,o),
(406,213,cs),
(405,186,o),
(398,158,o),
(389,140,cs),
(386,134,o),
(392,127,o),
(398,127,cs)
);
},
{
closed = 1;
nodes = (
(324,392,o),
(329,394,o),
(332,400,cs),
(341,419,o),
(432,611,o),
(432,628,cs),
(432,636,o),
(423,640,o),
(384,640,cs),
(343,640,o),
(342,645,o),
(335,608,cs),
(333,599,o),
(303,437,o),
(300,417,cs),
(297,400,o),
(308,392,o),
(319,392,cs)
);
}
);
width = 600;
},
{
associatedMasterId = m01;
layerId = "76AF503E-6DC9-4453-9A9C-57F7B4747202";
name = "21年10月23日 1:22";
shapes = (
{
closed = 1;
nodes = (
(240,0,ls),
(339,0,o),
(366,3,o),
(409,59,cs),
(419,73,o),
(430,89,o),
(430,98,cs),
(430,102,o),
(427,105,o),
(421,105,cs),
(384,105,ls),
(378,105,o),
(373,102,o),
(370,97,cs),
(359,75,o),
(343,60,o),
(326,53,cs),
(291,38,o),
(254,40,o),
(218,40,cs),
(174,40,o),
(137,40,o),
(122,52,cs),
(118,55,o),
(117,60,o),
(117,66,cs),
(117,75,o),
(120,86,o),
(123,94,cs),
(125,99,o),
(121,105,o),
(115,105,cs),
(80,105,ls),
(75,105,o),
(71,102,o),
(69,97,cs),
(66,85,o),
(64,75,o),
(64,65,cs),
(64,1,o),
(116,0,o),
(198,0,cs)
);
},
{
closed = 1;
nodes = (
(130,127,ls),
(135,127,o),
(140,130,o),
(143,134,cs),
(157,158,o),
(174,179,o),
(186,197,cs),
(221,244,o),
(233,252,o),
(251,277,cs),
(256,284,o),
(250,296,o),
(242,296,cs),
(241,296,ls),
(214,296,o),
(124,199,o),
(88,141,cs),
(85,135,o),
(89,127,o),
(96,127,cs)
);
},
{
closed = 1;
nodes = (
(432,127,ls),
(439,127,o),
(444,131,o),
(446,138,cs),
(461,199,o),
(447,275,o),
(404,286,cs),
(398,288,o),
(394,283,o),
(394,279,cs),
(394,277,o),
(406,233,o),
(406,213,cs),
(405,186,o),
(398,158,o),
(389,140,cs),
(386,134,o),
(392,127,o),
(398,127,cs)
);
},
{
closed = 1;
nodes = (
(324,392,o),
(329,394,o),
(332,400,cs),
(341,419,o),
(432,611,o),
(432,628,cs),
(432,636,o),
(423,640,o),
(384,640,cs),
(343,640,o),
(342,645,o),
(335,608,cs),
(333,599,o),
(303,437,o),
(300,417,cs),
(297,400,o),
(308,392,o),
(319,392,cs)
);
}
);
width = 600;
}
);
},
{
glyphname = period;
lastChange = "2021-10-23 06:19:08 +0000";
layers = (
{
layerId = m01;
shapes = (
{
closed = 1;
nodes = (
(493,-105,o),
(516,-81,o),
(516,-52,cs),
(516,-23,o),
(493,0,o),
(464,0,cs),
(435,0,o),
(411,-23,o),
(411,-52,cs),
(411,-81,o),
(435,-105,o),
(464,-105,cs)
);
}
);
width = 600;
},
{
associatedMasterId = m01;
layerId = "E1D08BD5-38DA-4C52-8B09-0BF345916D44";
width = 600;
},
{
associatedMasterId = m01;
layerId = "D643DAC8-209B-46C1-8F54-53B0A55A2D83";
name = "21年10月23日 1:22";
shapes = (
{
closed = 1;
nodes = (
(493,-105,o),
(516,-81,o),
(516,-52,cs),
(516,-23,o),
(493,0,o),
(464,0,cs),
(435,0,o),
(411,-23,o),
(411,-52,cs),
(411,-81,o),
(435,-105,o),
(464,-105,cs)
);
}
);
width = 600;
},
{
associatedMasterId = m01;
layerId = "5E7E960A-2B5B-4E88-8FF9-13F0165FAFCE";
name = "21年10月23日 1:22";
shapes = (
{
closed = 1;
nodes = (
(493,-105,o),
(516,-81,o),
(516,-52,cs),
(516,-23,o),
(493,0,o),
(464,0,cs),
(435,0,o),
(411,-23,o),
(411,-52,cs),
(411,-81,o),
(435,-105,o),
(464,-105,cs)
);
}
);
width = 600;
}
);
unicode = 46;
},
{
glyphname = comma;
lastChange = "2021-10-23 06:37:39 +0000";
layers = (
{
layerId = m01;
shapes = (
{
closed = 1;
nodes = (
(86,594,o),
(88,596,o),
(89,598,cs),
(167,772,ls),
(169,777,o),
(166,783,o),
(161,783,cs),
(83,783,ls),
(79,783,o),
(76,780,o),
(76,776,cs),
(76,601,ls),
(76,597,o),
(80,594,o),
(83,594,cs)
);
}
);
width = 600;
}
);
unicode = 44;
},
{
export = 0;
glyphname = ref;
lastChange = "2021-10-23 10:54:52 +0000";
layers = (
{
layerId = m01;
shapes = (
{
closed = 1;
nodes = (
(212,587,o),
(213,589,o),
(215,591,c),
(252,642,o),
(273,657,o),
(347,657,cs),
(424,657,o),
(440,655,o),
(466,653,cs),
(481,651,o),
(487,673,o),
(480,680,cs),
(472,688,o),
(460,700,o),
(412,700,cs),
(333,700,ls),
(285,700,o),
(221,692,o),
(192,663,cs),
(187,658,o),
(179,643,o),
(179,635,cs),
(180,622,o),
(198,595,o),
(202,591,cs),
(205,588,o),
(207,587,o),
(209,587,cs)
);
},
{
closed = 1;
nodes = (
(412,392,o),
(435,415,o),
(450,434,cs),
(470,459,o),
(536,568,o),
(536,593,cs),
(536,608,o),
(520,643,o),
(510,654,cs),
(501,663,o),
(494,644,o),
(487,622,cs),
(483,609,o),
(467,528,o),
(425,460,cs),
(415,444,o),
(391,405,o),
(391,402,cs),
(391,398,ls),
(391,393,o),
(397,392,o),
(401,392,cs)
);
},
{
closed = 1;
nodes = (
(432,127,ls),
(439,127,o),
(444,131,o),
(446,138,cs),
(461,199,o),
(447,275,o),
(404,286,cs),
(398,288,o),
(394,283,o),
(394,279,cs),
(394,277,o),
(406,233,o),
(406,213,cs),
(405,186,o),
(398,158,o),
(389,140,cs),
(386,134,o),
(392,127,o),
(398,127,cs)
);
},
{
closed = 1;
nodes = (
(240,0,ls),
(339,0,o),
(366,3,o),
(409,59,cs),
(419,73,o),
(430,89,o),
(430,98,cs),
(430,102,o),
(427,105,o),
(421,105,cs),
(384,105,ls),
(378,105,o),
(373,102,o),
(370,97,cs),
(359,75,o),
(343,60,o),
(326,53,cs),
(291,38,o),
(254,40,o),
(218,40,cs),
(174,40,o),
(137,40,o),
(122,52,cs),
(118,55,o),
(117,60,o),
(117,66,cs),
(117,75,o),
(120,86,o),
(123,94,cs),
(125,99,o),
(121,105,o),
(115,105,cs),
(80,105,ls),
(75,105,o),
(71,102,o),
(69,97,cs),
(66,85,o),
(64,75,o),
(64,65,cs),
(64,1,o),
(116,0,o),
(198,0,cs)
);
},
{
closed = 1;
nodes = (
(370,332,ls),
(381,332,o),
(384,339,o),
(384,345,cs),
(384,355,o),
(378,365,o),
(367,365,cs),
(233,365,ls),
(192,365,o),
(184,373,o),
(184,404,cs),
(184,440,o),
(192,511,o),
(203,551,cs),
(204,554,o),
(202,557,o),
(200,559,cs),
(181,578,o),
(181,574,o),
(171,599,cs),
(169,603,o),
(167,604,o),
(165,604,cs),
(156,604,o),
(146,571,o),
(141,539,cs),
(129,466,o),
(124,445,o),
(124,411,cs),
(124,396,o),
(126,383,o),
(130,372,cs),
(143,339,o),
(186,332,o),
(216,332,cs)
);
},
{
closed = 1;
nodes = (
(130,127,ls),
(135,127,o),
(140,130,o),
(143,134,cs),
(157,158,o),
(174,179,o),
(186,197,cs),
(221,244,o),
(233,252,o),
(251,277,cs),
(256,284,o),
(250,296,o),
(242,296,cs),
(241,296,ls),
(214,296,o),
(124,199,o),
(88,141,cs),
(85,135,o),
(89,127,o),
(96,127,cs)
);
},
{
closed = 1;
nodes = (
(324,392,o),
(329,394,o),
(332,400,cs),
(341,419,o),
(432,611,o),
(432,628,cs),
(432,636,o),
(423,640,o),
(384,640,cs),
(343,640,o),
(342,645,o),
(335,608,cs),
(333,599,o),
(303,437,o),
(300,417,cs),
(297,400,o),
(308,392,o),
(319,392,cs)
);
},
{
closed = 1;
nodes = (
(254,64,ls),
(264,64,o),
(265,65,o),
(268,78,cs),
(277,124,o),
(307,266,o),
(309,280,cs),
(311,294,o),
(291,296,o),
(285,282,cs),
(201,77,ls),
(196,65,o),
(201,64,o),
(220,64,cs)
);
},
{
closed = 1;
nodes = (
(493,-105,o),
(516,-81,o),
(516,-52,cs),
(516,-23,o),
(493,0,o),
(464,0,cs),
(435,0,o),
(411,-23,o),
(411,-52,cs),
(411,-81,o),
(435,-105,o),
(464,-105,cs)
);
},
{
closed = 1;
nodes = (
(86,594,o),
(88,596,o),
(89,598,cs),
(167,772,ls),
(169,777,o),
(166,783,o),
(161,783,cs),
(83,783,ls),
(79,783,o),
(76,780,o),
(76,776,cs),
(76,601,ls),
(76,597,o),
(80,594,o),
(83,594,cs)
);
}
);
width = 600;
}
);
},
{
export = 0;
glyphname = _part.a;
lastChange = "2021-10-23 10:54:23 +0000";
layers = (
{
layerId = m01;
shapes = (
{
closed = 1;
nodes = (
(212,587,o),
(213,589,o),
(215,591,c),
(252,642,o),
(273,657,o),
(347,657,cs),
(424,657,o),
(440,655,o),
(466,653,cs),
(481,651,o),
(487,673,o),
(480,680,cs),
(472,688,o),
(460,700,o),
(412,700,cs),
(333,700,ls),
(285,700,o),
(221,692,o),
(192,663,cs),
(187,658,o),
(179,643,o),
(179,635,cs),
(180,622,o),
(198,595,o),
(202,591,cs),
(205,588,o),
(207,587,o),
(209,587,cs)
);
}
);
width = 600;
}
);
},
{
export = 0;
glyphname = _part.b;
lastChange = "2021-10-23 06:28:41 +0000";
layers = (
{
layerId = m01;
shapes = (
{
closed = 1;
nodes = (
(412,392,o),
(435,415,o),
(450,434,cs),
(470,459,o),
(536,568,o),
(536,593,cs),
(536,608,o),
(520,643,o),
(510,654,cs),
(501,663,o),
(494,644,o),
(487,622,cs),
(483,609,o),
(467,528,o),
(425,460,cs),
(415,444,o),
(391,405,o),
(391,402,cs),
(391,398,ls),
(391,393,o),
(397,392,o),
(401,392,cs)
);
}
);
width = 600;
}
);
},
{
export = 0;
glyphname = _part.c;
lastChange = "2021-10-23 06:28:54 +0000";
layers = (
{
layerId = m01;
shapes = (
{
closed = 1;
nodes = (
(432,127,ls),
(439,127,o),
(444,131,o),
(446,138,cs),
(461,199,o),
(447,275,o),
(404,286,cs),
(398,288,o),
(394,283,o),
(394,279,cs),
(394,277,o),
(406,233,o),
(406,213,cs),
(405,186,o),
(398,158,o),
(389,140,cs),
(386,134,o),
(392,127,o),
(398,127,cs)
);
}
);
width = 600;
}
);
},
{
export = 0;
glyphname = _part.d;
lastChange = "2021-10-23 06:29:12 +0000";
layers = (
{
layerId = m01;
shapes = (
{
closed = 1;
nodes = (
(240,0,ls),
(339,0,o),
(366,3,o),
(409,59,cs),
(419,73,o),
(430,89,o),
(430,98,cs),
(430,102,o),
(427,105,o),
(421,105,cs),
(384,105,ls),
(378,105,o),
(373,102,o),
(370,97,cs),
(359,75,o),
(343,60,o),
(326,53,cs),
(291,38,o),
(254,40,o),
(218,40,cs),
(174,40,o),
(137,40,o),
(122,52,cs),
(118,55,o),
(117,60,o),
(117,66,cs),
(117,75,o),
(120,86,o),
(123,94,cs),
(125,99,o),
(121,105,o),
(115,105,cs),
(80,105,ls),
(75,105,o),
(71,102,o),
(69,97,cs),
(66,85,o),
(64,75,o),
(64,65,cs),
(64,1,o),
(116,0,o),
(198,0,cs)
);
}
);
width = 600;
}
);
},
{
export = 0;
glyphname = _part.e;
lastChange = "2021-10-23 06:29:22 +0000";
layers = (
{
layerId = m01;
shapes = (
{
closed = 1;
nodes = (
(130,127,ls),
(135,127,o),
(140,130,o),
(143,134,cs),
(157,158,o),
(174,179,o),
(186,197,cs),
(221,244,o),
(233,252,o),
(251,277,cs),
(256,284,o),
(250,296,o),
(242,296,cs),
(241,296,ls),
(214,296,o),
(124,199,o),
(88,141,cs),
(85,135,o),
(89,127,o),
(96,127,cs)
);
}
);
width = 600;
}
);
},
{
export = 0;
glyphname = _part.f;
lastChange = "2021-10-23 06:29:39 +0000";
layers = (
{
layerId = m01;
shapes = (
{
closed = 1;
nodes = (
(370,332,ls),
(381,332,o),
(384,339,o),
(384,345,cs),
(384,355,o),
(378,365,o),
(367,365,cs),
(233,365,ls),
(192,365,o),
(184,373,o),
(184,404,cs),
(184,440,o),
(192,511,o),
(203,551,cs),
(204,554,o),
(202,557,o),
(200,559,cs),
(181,578,o),
(181,574,o),
(171,599,cs),
(169,603,o),
(167,604,o),
(165,604,cs),
(156,604,o),
(146,571,o),
(141,539,cs),
(129,466,o),
(124,445,o),
(124,411,cs),
(124,396,o),
(126,383,o),
(130,372,cs),
(143,339,o),
(186,332,o),
(216,332,cs)
);
}
);
width = 600;
}
);
},
{
export = 0;
glyphname = _part.g;
lastChange = "2021-10-23 06:29:51 +0000";
layers = (
{
layerId = m01;
shapes = (
{
closed = 1;
nodes = (
(324,392,o),
(329,394,o),
(332,400,cs),
(341,419,o),
(432,611,o),
(432,628,cs),
(432,636,o),
(423,640,o),
(384,640,cs),
(343,640,o),
(342,645,o),
(335,608,cs),
(333,599,o),
(303,437,o),
(300,417,cs),
(297,400,o),
(308,392,o),
(319,392,cs)
);
}
);
width = 600;
}
);
},
{
export = 0;
glyphname = _part.h;
lastChange = "2021-10-23 06:30:03 +0000";
layers = (
{
layerId = m01;
shapes = (
{
closed = 1;
nodes = (
(254,64,ls),
(264,64,o),
(265,65,o),
(268,78,cs),
(277,124,o),
(307,266,o),
(309,280,cs),
(311,294,o),
(291,296,o),
(285,282,cs),
(201,77,ls),
(196,65,o),
(201,64,o),
(220,64,cs)
);
}
